<svg version="1.1" viewBox="0 0 96 96" xmlns="http://www.w3.org/2000/svg" xmlns:xlink="http://www.w3.org/1999/xlink" id="Icons_CheckIn" overflow="hidden"><path d=" M 47.875 38 C 45.3897 38 43.375 35.9853 43.375 33.5 C 43.375 31.0147 45.3897 29 47.875 29 C 50.3603 29 52.375 31.0147 52.375 33.5 C 52.375 35.9853 50.3603 38 47.875 38 Z M 47.875 23 C 42.076 23.0019 37.3766 27.7045 37.3785 33.5035 C 37.379 34.8112 37.6236 36.1072 38.1 37.325 L 42.87 47.825 L 46.97 56.425 C 47.2107 56.9221 47.8088 57.1298 48.3059 56.8891 C 48.5084 56.791 48.6719 56.6275 48.77 56.425 L 52.87 47.825 L 57.64 37.325 C 59.7525 31.9245 57.087 25.834 51.6865 23.7215 C 50.4718 23.2463 49.1793 23.0017 47.875 23 Z" stroke="none" stroke-width="1" stroke-linecap="butt" stroke-linejoin="miter" stroke-miterlimit="4" fill="#F49349" fill-opacity="1"/><path d=" M 70 2 L 26 2 C 23.7936 2.00659 22.0066 3.7936 22 6 L 22 90 C 22.0066 92.2064 23.7936 93.9934 26 94 L 70 94 C 72.2064 93.9934 73.9934 92.2064 74 90 L 74 6 C 73.9934 3.7936 72.2064 2.00659 70 2 Z M 44.5 6 L 51.5 6 C 52.3284 6 53 6.67157 53 7.5 C 53 8.32843 52.3284 9 51.5 9 L 44.5 9 C 43.6716 9 43 8.32843 43 7.5 C 43 6.67157 43.6716 6 44.5 6 Z M 70 83 L 26 83 L 26 13 L 70 13 Z" stroke="none" stroke-width="1" stroke-linecap="butt" stroke-linejoin="miter" stroke-miterlimit="4" fill="#F49349" fill-opacity="1"/><rect x="33" y="62" width="30" height="3" stroke="none" stroke-width="1" stroke-linecap="butt" stroke-linejoin="miter" stroke-miterlimit="4" fill="#F49349" fill-opacity="1"/><rect x="33" y="69" width="30" height="3" stroke="none" stroke-width="1" stroke-linecap="butt" stroke-linejoin="miter" stroke-miterlimit="4" fill="#F49349" fill-opacity="1"/></svg>